Coordinates
version=1
nRows=26
nColumns=24
inDegrees=yes

Units are S.I. units (second, meters, Newtons, ...)
Angles are in degrees.

endheader
time	pelvis_tilt	pelvis_list	pelvis_rotation	pelvis_tx	pelvis_ty	pelvis_tz	hip_flexion_r	hip_adduction_r	hip_rotation_r	knee_angle_r	ankle_angle_r	subtalar_angle_r	mtp_angle_r	hip_flexion_l	hip_adduction_l	hip_rotation_l	knee_angle_l	ankle_angle_l	subtalar_angle_l	mtp_angle_l	lumbar_extension	lumbar_bending	lumbar_rotation
      1.29383333	     -2.31747750	     -0.86040626	     -7.67037983	      0.10616454	      0.95060011	      0.30186348	    -16.92883390	      1.73621895	     -2.43077316	    -12.60593887	     12.59465338	      6.86053031	     12.29667695	     28.72726174	     -1.26841841	     -8.01157264	     -1.35472764	      3.75051095	     -4.27600307	      0.82700534	      0.82196941	      4.17414436	     12.24568508
      1.29800000	     -2.39998956	     -0.69832352	     -7.73032148	      0.11249240	      0.95004121	      0.30157652	    -16.93864688	      1.46607302	     -2.51329308	    -13.07107289	     12.25219819	      6.84707017	     12.70812979	     28.79722851	     -1.08970261	     -7.94075486	     -1.77352949	      3.33093038	     -4.87438602	      0.97611882	      0.99144675	      4.00377005	     12.27673763
      1.30216667	     -2.48550890	     -0.49865249	     -7.75267963	      0.11892349	      0.94951564	      0.30125713	    -16.95781580	      1.17310710	     -2.60339389	    -13.50776658	     11.93034321	      6.74378768	     13.56002467	     28.88336560	     -0.85821514	     -7.85061259	     -2.24051274	      2.86133724	     -5.52318081	      1.29331721	      1.20523313	      3.76976484	     12.30228958
      1.30633333	     -2.60932337	     -0.34469511	     -7.78795787	      0.12532661	      0.94901997	      0.30098924	    -16.92820089	      0.94274229	     -2.59076275	    -13.94291714	     11.42307383	      6.61992740	     13.83802542	     29.06306927	     -0.70237189	     -7.90144926	     -2.84260511	      2.37405286	     -5.87813117	      1.39229243	      1.45081242	      3.61581694	     12.31418055
      1.31050000	     -2.65000816	     -0.12493272	     -7.78577254	      0.13181946	      0.94863782	      0.30061135	    -16.94925111	      0.61921809	     -2.76481027	    -14.43998309	     10.85306774	      6.51239321	     18.02628367	     29.12485642	     -0.43776808	     -7.81855364	     -3.39021499	      1.83204057	     -6.49924414	      2.93974826	      1.59661579	      3.36470104	     12.29460232
      1.31466667	     -2.79334504	      0.06031124	     -7.82134625	      0.13826012	      0.94821318	      0.30031122	    -16.83653391	      0.36107668	     -2.71119859	    -14.98855091	     10.42568612	      6.21742070	     18.09968123	     29.32910239	     -0.24791543	     -7.79071816	     -4.03319542	      1.29183691	     -7.05217916	      2.95317759	      1.86835921	      3.17192232	     12.32015361
      1.31883333	     -2.89121426	      0.27803936	     -7.80904637	      0.14478429	      0.94788150	      0.29994106	    -16.77119752	      0.07250340	     -2.73945163	    -15.53137881	      9.91397394	      5.95400237	     18.29464125	     29.47778398	      0.00778549	     -7.68611385	     -4.66547944	      0.71136320	     -7.69298521	      2.99868044	      2.10331065	      2.92346662	     12.30891650
      1.32300000	     -2.99800203	      0.48393623	     -7.79697857	      0.15131694	      0.94759842	      0.29957304	    -16.67920180	     -0.19957228	     -2.74179458	    -16.08920771	      9.28611023	      5.71646019	     18.45476694	     29.66305716	      0.24204987	     -7.63297995	     -5.36965541	      0.13725696	     -8.20793990	      3.03199528	      2.34716258	      2.69533409	     12.29677144
      1.32716667	     -3.09524167	      0.70147240	     -7.76327722	      0.15786704	      0.94737329	      0.29915285	    -16.56422127	     -0.48043808	     -2.76014532	    -16.70985708	      8.66043287	      5.41463216	     18.70818648	     29.83244161	      0.50631720	     -7.51859099	     -6.06539279	     -0.45007729	     -8.82381555	      3.08208153	      2.58506377	      2.44840700	     12.26607019
      1.33133333	     -3.19668306	      0.93941659	     -7.72005855	      0.16445683	      0.94719820	      0.29871834	    -16.42983748	     -0.77833823	     -2.77100368	    -17.34243570	      7.97256999	      5.11289339	     18.97849681	     30.01989524	      0.79001266	     -7.43364655	     -6.79789616	     -1.01930503	     -9.34997202	      3.12971167	      2.82928198	      2.18134188	     12.23522566
      1.33550000	     -3.25514628	      1.20459847	     -7.66855106	      0.17107350	      0.94711262	      0.29822478	    -16.29444306	     -1.12613295	     -2.86609259	    -18.04738098	      7.21792926	      4.79116493	     23.46444313	     30.15341451	      1.11642745	     -7.33066937	     -7.51754478	     -1.56612451	     -9.91113743	      3.90067262	      3.02090071	      1.87526076	     12.18458160
      1.33966667	     -3.33963533	      1.43667774	     -7.60036309	      0.17769023	      0.94706864	      0.29774640	    -16.13562312	     -1.40916288	     -2.85213193	    -18.73928547	      6.40396787	      4.43156311	     23.50427310	     30.34306645	      1.40324163	     -7.26191466	     -8.31333715	     -2.05690242	    -10.32199363	      3.89245124	      3.24959906	      1.60804840	     12.15039210
      1.34383333	     -3.41447960	      1.68082009	     -7.52434040	      0.18430937	      0.94708040	      0.29723001	    -15.94689480	     -1.70838319	     -2.85420293	    -19.49769485	      5.57084424	      4.07139311	     23.60111238	     30.51275922	      1.71358008	     -7.14853566	     -9.09383744	     -2.53193219	    -10.78079360	      3.88317087	      3.46616506	      1.32646252	     12.09831553
      1.34800000	     -3.47165955	      1.94019108	     -7.44014831	      0.19093832	      0.94715793	      0.29666406	    -15.73919271	     -2.02895442	     -2.86440187	    -20.31904310	      4.72209287	      3.68221285	     23.86816644	     30.65021718	      2.05547868	     -6.97855382	     -9.85450026	     -2.94962633	    -11.30464602	      3.86752678	      3.66112637	      1.02585741	     12.02390411
      1.35216667	     -3.51973491	      2.18853561	     -7.34181406	      0.19758069	      0.94730339	      0.29608495	    -15.52786852	     -2.33488838	     -2.87522767	    -21.14428977	      3.74603478	      3.36283445	     24.05668344	     30.79979878	      2.38067923	     -6.90339301	    -10.67006370	     -3.33539159	    -11.60387487	      3.84982574	      3.84591128	      0.73866940	     11.97569362
      1.35633333	     -3.56315124	      2.46420716	     -7.23951425	      0.20420872	      0.94748851	      0.29544140	    -15.26343857	     -2.67746645	     -2.89587617	    -22.07401286	      2.81757262	      2.95442299	     24.73303429	     30.90500870	      2.76047157	     -6.68591419	    -11.40660156	     -3.67612992	    -12.12295112	      3.78858114	      4.02683408	      0.42267649	     11.87293370
      1.36050000	     -3.57198537	      2.71459315	     -7.12779083	      0.21085707	      0.94776605	      0.29482486	    -15.03653934	     -2.98991307	     -2.90181215	    -22.97743216	      1.70414154	      2.67718582	     24.94178625	     31.01101259	      3.09471673	     -6.65352455	    -12.23800207	     -3.93311871	    -12.26658375	      3.76077386	      4.16742813	      0.12203683	     11.84154956
      1.36466667	     -3.54322664	      3.00960390	     -7.00097130	      0.21752759	      0.94811774	      0.29411082	    -14.80666291	     -3.37034761	     -2.97933710	    -23.94601739	      0.57268997	      2.33144441	     29.34885777	     31.03420098	      3.51315258	     -6.49817447	    -12.98330880	     -4.14374536	    -12.62001575	      3.15482383	      4.26677252	     -0.23146819	     11.75921270
      1.36883333	     -3.56923144	      3.26347872	     -6.89576344	      0.22411167	      0.94844414	      0.29344138	    -14.46586087	     -3.69237255	     -2.94978988	    -25.00055984	     -0.55536825	      1.99268214	     29.37066633	     31.12849342	      3.85888146	     -6.42139849	    -13.76579740	     -4.28990233	    -12.78267984	      3.14266071	      4.42108749	     -0.51973699	     11.70629483
      1.37300000	     -3.54776538	      3.54528482	     -6.77930760	      0.23071577	      0.94885108	      0.29274038	    -14.15053566	     -4.05227927	     -2.94645720	    -26.09063024	     -1.68231584	      1.66598656	     29.39375072	     31.15682986	      4.24791351	     -6.35099880	    -14.52337341	     -4.35001259	    -12.94506075	      3.13010822	      4.52343214	     -0.86466884	     11.65059155
      1.37716667	     -3.53497259	      3.78522299	     -6.65559224	      0.23723932	      0.94929224	      0.29199281	    -13.78776456	     -4.36633924	     -2.92376617	    -27.22725602	     -2.94887895	      1.36708091	     29.46069460	     31.16319087	      4.61166557	     -6.20263454	    -15.21927590	     -4.46113291	    -13.14774359	      3.09743268	      4.62087810	     -1.12474711	     11.57383305
      1.38133333	     -3.49595454	      4.06228826	     -6.53414814	      0.24376803	      0.94977156	      0.29125158	    -13.41937054	     -4.72638061	     -2.90541393	    -28.41392225	     -4.14471531	      1.06093469	     29.50792850	     31.13801304	      5.00925452	     -6.12416023	    -15.91334582	     -4.44958221	    -13.29512046	      3.07206159	      4.69051889	     -1.46411036	     11.50657552
      1.38550000	     -3.45781280	      4.32124479	     -6.41334968	      0.25023166	      0.95028150	      0.29048688	    -13.00912294	     -5.07139221	     -2.88189718	    -29.65253717	     -5.40672946	      0.77154848	     29.55656386	     31.08857526	      5.39431552	     -6.03063271	    -16.55899904	     -4.43150887	    -13.42894737	      3.04172090	      4.75495440	     -1.76630837	     11.43581775
      1.38966667	     -3.42214988	      4.54260138	     -6.28420943	      0.25661289	      0.95081192	      0.28968679	    -12.56589921	     -5.37402283	     -2.84090217	    -30.92212160	     -6.73959727	      0.50076252	     29.69266428	     31.01800876	      5.75645813	     -5.88673587	    -17.15939716	     -4.44429457	    -13.62482022	      2.95030957	      4.80967306	     -2.00229741	     11.34221725
      1.39383333	     -3.38162134	      4.80172227	     -6.17283411	      0.26297268	      0.95136308	      0.28891081	    -12.08269259	     -5.72598651	     -2.79356185	    -32.25365850	     -7.99996200	      0.21315531	     29.75920733	     30.91383912	      6.14434168	     -5.80578480	    -17.70111468	     -4.35662482	    -13.68291005	      2.89134363	      4.86258043	     -2.29395551	     11.27222585
      1.39800000	     -3.32998000	      5.04926910	     -6.05833434	      0.26927483	      0.95193006	      0.28814591	    -11.58625752	     -6.06209571	     -2.73121372	    -33.60980807	     -9.24573993	     -0.06996420	     29.79504243	     30.78709460	      6.52265049	     -5.73812042	    -18.22707643	     -4.22380877	    -13.75128423	      2.84134153	      4.89813641	     -2.59599680	     11.19755850
